<svg xmlns="http://www.w3.org/2000/svg" viewBox="0 0 512 512"><rect width="512" height="512" rx="112" fill="#f3f5f7"/><rect x="104" y="218" width="26.285714285714285" height="18" fill="#1f8a70"/><rect x="142.28571428571428" y="203.66666666666666" width="26.285714285714285" height="32.333333333333336" fill="#1f8a70"/><rect x="180.57142857142856" y="189.33333333333331" width="26.285714285714285" height="46.66666666666667" fill="#1f8a70"/><rect x="218.85714285714286" y="175" width="26.285714285714285" height="61" fill="#1f8a70"/><rect x="257.1428571428571" y="160.66666666666666" width="26.285714285714285" height="75.33333333333334" fill="#1f8a70"/><rect x="295.42857142857144" y="146.33333333333331" width="26.285714285714285" height="89.66666666666667" fill="#1f8a70"/><rect x="333.7142857142857" y="132" width="26.285714285714285" height="104" fill="#1f8a70"/><rect x="96" y="242" width="272" height="10" rx="5" fill="#1f8a70"/><rect x="104" y="366" width="26.285714285714285" height="18" fill="#6c4bd1"/><rect x="142.28571428571428" y="351.6666666666667" width="26.285714285714285" height="32.333333333333336" fill="#6c4bd1"/><rect x="180.57142857142856" y="337.3333333333333" width="26.285714285714285" height="46.66666666666667" fill="#6c4bd1"/><rect x="218.85714285714286" y="294.3333333333333" width="26.285714285714285" height="89.66666666666667" fill="#1e2430"/><rect x="257.1428571428571" y="323" width="26.285714285714285" height="61" fill="#1e2430"/><rect x="295.42857142857144" y="280" width="26.285714285714285" height="104" fill="#1e2430"/><rect x="333.7142857142857" y="308.66666666666663" width="26.285714285714285" height="75.33333333333334" fill="#1e2430"/><rect x="96" y="390" width="272" height="10" rx="5" fill="#6c4bd1"/><rect x="384" y="122" width="12" height="12" fill="#1e2430"/><rect x="396" y="134" width="12" height="12" fill="#1e2430"/><rect x="384" y="146" width="12" height="12" fill="#1e2430"/><rect x="396" y="158" width="12" height="12" fill="#1e2430"/><rect x="384" y="170" width="12" height="12" fill="#1e2430"/><rect x="396" y="182" width="12" height="12" fill="#1e2430"/><rect x="384" y="194" width="12" height="12" fill="#1e2430"/><rect x="396" y="206" width="12" height="12" fill="#1e2430"/><rect x="384" y="218" width="12" height="12" fill="#1e2430"/><rect x="396" y="230" width="12" height="12" fill="#1e2430"/><rect x="384" y="242" width="12" height="12" fill="#1e2430"/><rect x="396" y="254" width="12" height="12" fill="#1e2430"/><rect x="384" y="266" width="12" height="12" fill="#1e2430"/><rect x="396" y="278" width="12" height="12" fill="#1e2430"/><rect x="384" y="290" width="12" height="12" fill="#1e2430"/><rect x="396" y="302" width="12" height="12" fill="#1e2430"/><rect x="384" y="314" width="12" height="12" fill="#1e2430"/><rect x="396" y="326" width="12" height="12" fill="#1e2430"/><rect x="384" y="338" width="12" height="12" fill="#1e2430"/><rect x="396" y="350" width="12" height="12" fill="#1e2430"/><rect x="384" y="362" width="12" height="12" fill="#1e2430"/><rect x="396" y="374" width="12" height="12" fill="#1e2430"/><rect x="384" y="386" width="12" height="12" fill="#1e2430"/></svg>
